<svg width="58" height="61" viewBox="0 0 58 61" fill="none" xmlns="http://www.w3.org/2000/svg"><path d="M38.496 3.01a2.85 2.85 0 0 0-2.85-2.85H3.35A2.85 2.85 0 0 0 .5 3.01v13.3a2.85 2.85 0 0 0 2.85 2.85h32.297a2.85 2.85 0 0 1 2.85 2.85v3.799a2.85 2.85 0 0 1-2.85 2.85H14.749a2.85 2.85 0 0 0-2.85 2.85v13.298a2.85 2.85 0 0 0 2.85 2.85h20.898a2.85 2.85 0 0 1 2.85 2.85v7.599a2.85 2.85 0 0 0 2.849 2.85h13.299a2.85 2.85 0 0 0 2.85-2.85v-13.3a2.85 2.85 0 0 0-2.85-2.85H41.346a2.85 2.85 0 0 1-2.85-2.85v-3.799a2.85 2.85 0 0 1 2.85-2.85h13.299a2.85 2.85 0 0 0 2.85-2.85V16.31a2.85 2.85 0 0 0-2.85-2.85H41.346a2.85 2.85 0 0 1-2.85-2.85z" fill="#151515"/></svg>