<svg width="600" height="600" viewBox="0 0 600 600" fill="none" xmlns="http://www.w3.org/2000/svg">
<g clip-path="url(#clip0_2031_146)">
<path fill-rule="evenodd" clip-rule="evenodd" d="M120 0C53.7258 0 0 53.7258 0 120V480C0 546.274 53.7258 600 120 600H480C546.274 600 600 546.274 600 480V120C600 53.7258 546.274 0 480 0H120ZM132 32C76.7715 32 32 76.7715 32 132V468C32 523.228 76.7715 568 132 568H468C523.228 568 568 523.228 568 468V132C568 76.7715 523.228 32 468 32H132Z" fill="url(#paint0_radial_2031_146)"/>
<path fill-rule="evenodd" clip-rule="evenodd" d="M120 0C53.7258 0 0 53.7258 0 120V480C0 546.274 53.7258 600 120 600H480C546.274 600 600 546.274 600 480V120C600 53.7258 546.274 0 480 0H120ZM132 32C76.7715 32 32 76.7715 32 132V468C32 523.228 76.7715 568 132 568H468C523.228 568 568 523.228 568 468V132C568 76.7715 523.228 32 468 32H132Z" fill="url(#paint1_radial_2031_146)"/>
<path fill-rule="evenodd" clip-rule="evenodd" d="M120 0C53.7258 0 0 53.7258 0 120V480C0 546.274 53.7258 600 120 600H480C546.274 600 600 546.274 600 480V120C600 53.7258 546.274 0 480 0H120ZM132 32C76.7715 32 32 76.7715 32 132V468C32 523.228 76.7715 568 132 568H468C523.228 568 568 523.228 568 468V132C568 76.7715 523.228 32 468 32H132Z" fill="url(#paint2_radial_2031_146)"/>
<path fill-rule="evenodd" clip-rule="evenodd" d="M120 0C53.7258 0 0 53.7258 0 120V480C0 546.274 53.7258 600 120 600H480C546.274 600 600 546.274 600 480V120C600 53.7258 546.274 0 480 0H120ZM132 32C76.7715 32 32 76.7715 32 132V468C32 523.228 76.7715 568 132 568H468C523.228 568 568 523.228 568 468V132C568 76.7715 523.228 32 468 32H132Z" fill="url(#paint3_radial_2031_146)"/>
<path fill-rule="evenodd" clip-rule="evenodd" d="M120 0C53.7258 0 0 53.7258 0 120V480C0 546.274 53.7258 600 120 600H480C546.274 600 600 546.274 600 480V120C600 53.7258 546.274 0 480 0H120ZM132 32C76.7715 32 32 76.7715 32 132V468C32 523.228 76.7715 568 132 568H468C523.228 568 568 523.228 568 468V132C568 76.7715 523.228 32 468 32H132Z" fill="url(#paint4_radial_2031_146)"/>
<path fill-rule="evenodd" clip-rule="evenodd" d="M120 0C53.7258 0 0 53.7258 0 120V480C0 546.274 53.7258 600 120 600H480C546.274 600 600 546.274 600 480V120C600 53.7258 546.274 0 480 0H120ZM132 32C76.7715 32 32 76.7715 32 132V468C32 523.228 76.7715 568 132 568H468C523.228 568 568 523.228 568 468V132C568 76.7715 523.228 32 468 32H132Z" fill="url(#paint5_radial_2031_146)"/>
<path fill-rule="evenodd" clip-rule="evenodd" d="M120 0C53.7258 0 0 53.7258 0 120V480C0 546.274 53.7258 600 120 600H480C546.274 600 600 546.274 600 480V120C600 53.7258 546.274 0 480 0H120ZM132 32C76.7715 32 32 76.7715 32 132V468C32 523.228 76.7715 568 132 568H468C523.228 568 568 523.228 568 468V132C568 76.7715 523.228 32 468 32H132Z" fill="url(#paint6_radial_2031_146)"/>
<path fill-rule="evenodd" clip-rule="evenodd" d="M120 0C53.7258 0 0 53.7258 0 120V480C0 546.274 53.7258 600 120 600H480C546.274 600 600 546.274 600 480V120C600 53.7258 546.274 0 480 0H120ZM132 32C76.7715 32 32 76.7715 32 132V468C32 523.228 76.7715 568 132 568H468C523.228 568 568 523.228 568 468V132C568 76.7715 523.228 32 468 32H132Z" fill="url(#paint7_radial_2031_146)"/>
<g filter="url(#filter0_ddddii_2031_146)">
<g filter="url(#filter1_b_2031_146)">
<path fill-rule="evenodd" clip-rule="evenodd" d="M472.522 156.543L473.644 135.794C473.965 129.853 469.06 124.947 463.118 125.269L442.369 126.391C373.563 130.114 316.252 137.447 271.019 148.755C226.521 159.879 190.18 175.686 166.949 198.918C102.595 263.272 102.595 367.61 166.949 431.964C231.303 496.318 335.641 496.318 399.995 431.964C423.226 408.733 439.034 372.392 450.158 327.894C461.466 282.661 468.799 225.35 472.522 156.543ZM207.461 239.43C219.675 227.217 243.841 214.606 284.914 204.337C316.008 196.564 354.819 190.603 401.611 186.622C407.715 186.103 412.81 191.198 412.291 197.302C408.31 244.094 402.349 282.904 394.576 313.999C384.307 355.072 371.696 379.238 359.483 391.452C317.503 433.431 249.441 433.431 207.461 391.452C165.482 349.472 165.482 281.41 207.461 239.43Z" fill="white"/>
</g>
<g filter="url(#filter2_iii_2031_146)">
<path fill-rule="evenodd" clip-rule="evenodd" d="M196.257 401.783C242.925 448.451 320.253 446.787 368.973 398.066C400.62 366.42 421.219 292.343 430.769 175.836C431.169 170.955 427.085 166.871 422.204 167.271C305.697 176.821 231.621 197.42 199.974 229.067C151.253 277.787 149.589 355.115 196.257 401.783Z" fill="url(#paint8_radial_2031_146)"/>
</g>
</g>
</g>
<defs>
<filter id="filter0_ddddii_2031_146" x="94.6836" y="103.254" width="635.977" height="670.976" filterUnits="userSpaceOnUse" color-interpolation-filters="sRGB">
<feFlood flood-opacity="0" result="BackgroundImageFix"/>
<feColorMatrix in="SourceAlpha" type="matrix" values="0 0 0 0 0 0 0 0 0 0 0 0 0 0 0 0 0 0 127 0" result="hardAlpha"/>
<feOffset dx="10" dy="12"/>
<feGaussianBlur stdDeviation="17"/>
<feColorMatrix type="matrix" values="0 0 0 0 0 0 0 0 0 0 0 0 0 0 0 0 0 0 0.14 0"/>
<feBlend mode="normal" in2="BackgroundImageFix" result="effect1_dropShadow_2031_146"/>
<feColorMatrix in="SourceAlpha" type="matrix" values="0 0 0 0 0 0 0 0 0 0 0 0 0 0 0 0 0 0 127 0" result="hardAlpha"/>
<feOffset dx="39" dy="48"/>
<feGaussianBlur stdDeviation="31"/>
<feColorMatrix type="matrix" values="0 0 0 0 0 0 0 0 0 0 0 0 0 0 0 0 0 0 0.12 0"/>
<feBlend mode="normal" in2="effect1_dropShadow_2031_146" result="effect2_dropShadow_2031_146"/>
<feColorMatrix in="SourceAlpha" type="matrix" values="0 0 0 0 0 0 0 0 0 0 0 0 0 0 0 0 0 0 127 0" result="hardAlpha"/>
<feOffset dx="89" dy="109"/>
<feGaussianBlur stdDeviation="42"/>
<feColorMatrix type="matrix" values="0 0 0 0 0 0 0 0 0 0 0 0 0 0 0 0 0 0 0.07 0"/>
<feBlend mode="normal" in2="effect2_dropShadow_2031_146" result="effect3_dropShadow_2031_146"/>
<feColorMatrix in="SourceAlpha" type="matrix" values="0 0 0 0 0 0 0 0 0 0 0 0 0 0 0 0 0 0 127 0" result="hardAlpha"/>
<feOffset dx="157" dy="194"/>
<feGaussianBlur stdDeviation="50"/>
<feColorMatrix type="matrix" values="0 0 0 0 0 0 0 0 0 0 0 0 0 0 0 0 0 0 0.02 0"/>
<feBlend mode="normal" in2="effect3_dropShadow_2031_146" result="effect4_dropShadow_2031_146"/>
<feBlend mode="normal" in="SourceGraphic" in2="effect4_dropShadow_2031_146" result="shape"/>
<feColorMatrix in="SourceAlpha" type="matrix" values="0 0 0 0 0 0 0 0 0 0 0 0 0 0 0 0 0 0 127 0" result="hardAlpha"/>
<feOffset dx="-6" dy="-15"/>
<feGaussianBlur stdDeviation="12"/>
<feComposite in2="hardAlpha" operator="arithmetic" k2="-1" k3="1"/>
<feColorMatrix type="matrix" values="0 0 0 0 0.53915 0 0 0 0 0.32734 0 0 0 0 0.543473 0 0 0 0.2 0"/>
<feBlend mode="normal" in2="shape" result="effect5_innerShadow_2031_146"/>
<feColorMatrix in="SourceAlpha" type="matrix" values="0 0 0 0 0 0 0 0 0 0 0 0 0 0 0 0 0 0 127 0" result="hardAlpha"/>
<feOffset dx="4" dy="8"/>
<feGaussianBlur stdDeviation="8"/>
<feComposite in2="hardAlpha" operator="arithmetic" k2="-1" k3="1"/>
<feColorMatrix type="matrix" values="0 0 0 0 1 0 0 0 0 1 0 0 0 0 1 0 0 0 0.5 0"/>
<feBlend mode="normal" in2="effect5_innerShadow_2031_146" result="effect6_innerShadow_2031_146"/>
</filter>
<filter id="filter1_b_2031_146" x="102.684" y="109.254" width="386.977" height="386.976" filterUnits="userSpaceOnUse" color-interpolation-filters="sRGB">
<feFlood flood-opacity="0" result="BackgroundImageFix"/>
<feGaussianBlur in="BackgroundImageFix" stdDeviation="8"/>
<feComposite in2="SourceAlpha" operator="in" result="effect1_backgroundBlur_2031_146"/>
<feBlend mode="normal" in="SourceGraphic" in2="effect1_backgroundBlur_2031_146" result="shape"/>
</filter>
<filter id="filter2_iii_2031_146" x="154.316" y="151.244" width="301.48" height="305.48" filterUnits="userSpaceOnUse" color-interpolation-filters="sRGB">
<feFlood flood-opacity="0" result="BackgroundImageFix"/>
<feBlend mode="normal" in="SourceGraphic" in2="BackgroundImageFix" result="shape"/>
<feColorMatrix in="SourceAlpha" type="matrix" values="0 0 0 0 0 0 0 0 0 0 0 0 0 0 0 0 0 0 127 0" result="hardAlpha"/>
<feOffset dx="-8" dy="-16"/>
<feGaussianBlur stdDeviation="24"/>
<feComposite in2="hardAlpha" operator="arithmetic" k2="-1" k3="1"/>
<feColorMatrix type="matrix" values="0 0 0 0 0 0 0 0 0 0 0 0 0 0 0 0 0 0 0.25 0"/>
<feBlend mode="normal" in2="shape" result="effect1_innerShadow_2031_146"/>
<feColorMatrix in="SourceAlpha" type="matrix" values="0 0 0 0 0 0 0 0 0 0 0 0 0 0 0 0 0 0 127 0" result="hardAlpha"/>
<feOffset dy="-8"/>
<feGaussianBlur stdDeviation="6"/>
<feComposite in2="hardAlpha" operator="arithmetic" k2="-1" k3="1"/>
<feColorMatrix type="matrix" values="0 0 0 0 0 0 0 0 0 0 0 0 0 0 0 0 0 0 0.25 0"/>
<feBlend mode="normal" in2="effect1_innerShadow_2031_146" result="effect2_innerShadow_2031_146"/>
<feColorMatrix in="SourceAlpha" type="matrix" values="0 0 0 0 0 0 0 0 0 0 0 0 0 0 0 0 0 0 127 0" result="hardAlpha"/>
<feOffset dx="25" dy="21"/>
<feGaussianBlur stdDeviation="24"/>
<feComposite in2="hardAlpha" operator="arithmetic" k2="-1" k3="1"/>
<feColorMatrix type="matrix" values="0 0 0 0 1 0 0 0 0 1 0 0 0 0 1 0 0 0 0.25 0"/>
<feBlend mode="normal" in2="effect2_innerShadow_2031_146" result="effect3_innerShadow_2031_146"/>
</filter>
<radialGradient id="paint0_radial_2031_146" cx="0" cy="0" r="1" gradientUnits="userSpaceOnUse" gradientTransform="rotate(57.2235) scale(417.465 317.757)">
<stop offset="0.132661" stop-color="#06E1FF"/>
<stop offset="1" stop-color="#06E1FF" stop-opacity="0"/>
</radialGradient>
<radialGradient id="paint1_radial_2031_146" cx="0" cy="0" r="1" gradientUnits="userSpaceOnUse" gradientTransform="translate(584 24) rotate(126.723) scale(587.002)">
<stop offset="0.108334" stop-color="#FF24B4"/>
<stop offset="1" stop-color="#FF24B4" stop-opacity="0"/>
</radialGradient>
<radialGradient id="paint2_radial_2031_146" cx="0" cy="0" r="1" gradientUnits="userSpaceOnUse" gradientTransform="translate(180.5 78.5) rotate(45.8551) scale(213.216 106.609)">
<stop stop-color="#05F240"/>
<stop offset="1" stop-color="#05F240" stop-opacity="0"/>
</radialGradient>
<radialGradient id="paint3_radial_2031_146" cx="0" cy="0" r="1" gradientUnits="userSpaceOnUse" gradientTransform="translate(585 348) rotate(145.167) scale(368.533 279.028)">
<stop stop-color="#705CF2"/>
<stop offset="1" stop-color="#705CF2" stop-opacity="0"/>
</radialGradient>
<radialGradient id="paint4_radial_2031_146" cx="0" cy="0" r="1" gradientUnits="userSpaceOnUse" gradientTransform="translate(24.5 600) rotate(-8.45751) scale(309.364 247.634)">
<stop stop-color="#05F240"/>
<stop offset="1" stop-color="#05F240" stop-opacity="0"/>
</radialGradient>
<radialGradient id="paint5_radial_2031_146" cx="0" cy="0" r="1" gradientUnits="userSpaceOnUse" gradientTransform="translate(361 661) rotate(-127.552) scale(210.015)">
<stop offset="0.108334" stop-color="#FF24B4"/>
<stop offset="1" stop-color="#FF24B4" stop-opacity="0"/>
</radialGradient>
<radialGradient id="paint6_radial_2031_146" cx="0" cy="0" r="1" gradientUnits="userSpaceOnUse" gradientTransform="translate(-14 364) rotate(2.91273) scale(255.831)">
<stop stop-color="#FFF503"/>
<stop offset="1" stop-color="#FFF503" stop-opacity="0"/>
</radialGradient>
<radialGradient id="paint7_radial_2031_146" cx="0" cy="0" r="1" gradientUnits="userSpaceOnUse" gradientTransform="translate(600 550.5) rotate(-148.542) scale(377.482 183.332)">
<stop stop-color="#FFF503"/>
<stop offset="1" stop-color="#FFF503" stop-opacity="0"/>
</radialGradient>
<radialGradient id="paint8_radial_2031_146" cx="0" cy="0" r="1" gradientUnits="userSpaceOnUse" gradientTransform="translate(305.844 190.261) rotate(90.4316) scale(240.509 496.247)">
<stop stop-color="#A54ADC"/>
<stop offset="1" stop-color="#6603A2"/>
</radialGradient>
<clipPath id="clip0_2031_146">
<rect width="600" height="600" rx="120" fill="white"/>
</clipPath>
</defs>
</svg>
